<svg width="40" height="40" viewBox="0 0 40 40" xmlns="http://www.w3.org/2000/svg">
  <rect width="40" height="40" rx="8" fill="#F4F6F8"/>
  <path fill="#20263A" d="M8 30h23.5c1.9 0 3.5-1.6 3.5-3.5 0-.8-.7-1.5-1.5-1.5S32 25.7 32 26.5c0 .3-.2.5-.5.5H8c-.8 0-1.5.7-1.5 1.5S7.2 30 8 30Z"/>
  <path fill="#20263A" d="M27.5 24h3.1L25 8.8c-.3-.8-1.1-1.1-1.9-.8-.8.3-1.1 1.1-.8 1.9L27.5 24Z"/>
  <path fill="#20263A" d="M12 13.5C12 11 14 9 16.5 9S21 11 21 13.5 19 18 16.5 18 12 16 12 13.5Zm1 8c0-.8.7-1.5 1.5-1.5h12c.8 0 1.5.7 1.5 1.5S27.3 23 26.5 23h-12c-.8 0-1.5-.7-1.5-1.5Z"/>
</svg>
