<svg width="13" height="13" viewBox="0 0 13 13" xmlns="http://www.w3.org/2000/svg">
  <rect x="1" y="1" width="11" height="11" rx="2.5" fill="#17243A"/>
  <path fill="#F5F7FB" d="M2.5 5h5.7c.4 0 .7.3.7.7v.2c0 .4-.3.7-.7.7H2.5c-.4 0-.7-.3-.7-.7v-.2c0-.4.3-.7.7-.7Z"/>
  <path fill="#1A2030" d="M3 8.6h5.2c.5 0 .8.4.8.8 0 .5-.3.9-.8.9H3c-.5 0-.8-.4-.8-.9 0-.4.3-.8.8-.8Z"/>
  <path fill="#96EA2C" d="M2.4 9.8h6.3c.3 0 .5-.2.5-.4 0-.2-.2-.4-.5-.4H2.5c-.3 0-.5.2-.5.4s.2.4.4.4Z"/>
  <path fill="#121B2A" d="M4.2 2.3h3.2c.5 0 .9.4.9.9v1.5c0 .5-.4.9-.9.9H4.2c-.5 0-.9-.4-.9-.9V3.2c0-.5.4-.9.9-.9Z"/>
  <path fill="#20A7F8" d="M4 3h3.6v1.8H4z"/>
  <path fill="#91E622" d="M9.2 4.1c1.4 0 2.5 1.1 2.5 2.5 0 .6-.2 1.1-.5 1.5.8.3 1.2.9 1.2 1.8v1.1H7.1V9.4c0-.7.3-1.2.7-1.6-.5-.4-.8-1.1-.8-1.8 0-.9.5-1.7 1.2-2.1.1-.7.4-1.1.7-1.2.3-.1.5.1.4.4l-.1 1Z"/>
  <circle cx="9.2" cy="6.3" r="1.6" fill="#fff"/>
  <path fill="none" stroke="#111827" stroke-width=".5" stroke-linecap="round" d="M8.5 6.8c.4.4 1 .4 1.4 0"/>
  <circle cx="8.7" cy="6" r=".2" fill="#111827"/>
  <circle cx="9.7" cy="6" r=".2" fill="#111827"/>
</svg>
